<svg width="24" height="24" viewBox="0 0 24 24" fill="none" xmlns="http://www.w3.org/2000/svg">
<path d="M12.1752 5.94684C8.91182 5.94684 6.27958 8.57966 6.27958 11.8437C6.27958 15.1078 8.91182 17.7407 12.1752 17.7407C15.4385 17.7407 18.0708 15.1078 18.0708 11.8437C18.0708 8.57966 15.4385 5.94684 12.1752 5.94684ZM12.1752 15.6775C10.0663 15.6775 8.34227 13.9582 8.34227 11.8437C8.34227 9.72928 10.0612 8.00999 12.1752 8.00999C14.2892 8.00999 16.0081 9.72928 16.0081 11.8437C16.0081 13.9582 14.284 15.6775 12.1752 15.6775V15.6775ZM19.6871 5.70563C19.6871 6.47033 19.0713 7.08106 18.3119 7.08106C17.5474 7.08106 16.9368 6.46519 16.9368 5.70563C16.9368 4.94606 17.5525 4.33019 18.3119 4.33019C19.0713 4.33019 19.6871 4.94606 19.6871 5.70563ZM23.5918 7.10159C23.5046 5.25912 23.0838 3.62708 21.7343 2.28244C20.39 0.937803 18.7583 0.516962 16.9163 0.424582C15.0178 0.316806 9.32743 0.316806 7.42894 0.424582C5.59202 0.51183 3.96034 0.932671 2.61087 2.27731C1.2614 3.62195 0.845781 5.25399 0.753422 7.09646C0.645669 8.99537 0.645669 14.687 0.753422 16.5859C0.84065 18.4284 1.2614 20.0604 2.61087 21.4051C3.96034 22.7497 5.58689 23.1705 7.42894 23.2629C9.32743 23.3707 15.0178 23.3707 16.9163 23.2629C18.7583 23.1757 20.39 22.7548 21.7343 21.4051C23.0787 20.0604 23.4994 18.4284 23.5918 16.5859C23.6995 14.687 23.6995 9.00051 23.5918 7.10159V7.10159ZM21.1391 18.6234C20.7389 19.6293 19.9641 20.4043 18.9533 20.8097C17.4396 21.4102 13.8479 21.2716 12.1752 21.2716C10.5024 21.2716 6.90557 21.4051 5.39704 20.8097C4.39135 20.4094 3.61656 19.6344 3.2112 18.6234C2.61087 17.1094 2.74941 13.5169 2.74941 11.8437C2.74941 10.1706 2.616 6.57297 3.2112 5.0641C3.61143 4.05819 4.38622 3.28322 5.39704 2.87778C6.9107 2.27731 10.5024 2.41588 12.1752 2.41588C13.8479 2.41588 17.4448 2.28244 18.9533 2.87778C19.959 3.27809 20.7338 4.05305 21.1391 5.0641C21.7395 6.5781 21.6009 10.1706 21.6009 11.8437C21.6009 13.5169 21.7395 17.1145 21.1391 18.6234Z" fill="black"/>
</svg>
