<svg width="256" height="256" viewBox="0 0 256 256" fill="none" xmlns="http://www.w3.org/2000/svg">
<path fill-rule="evenodd" clip-rule="evenodd" d="M54.7375 23.0264C45.5813 29.4287 37.3016 36.9983 30.1141 45.5194C59.4856 42.7925 96.8011 47.2451 140.124 68.9068C186.387 92.0377 223.64 92.8198 249.567 87.8188C247.214 80.6962 244.252 73.8508 240.744 67.3433C211.066 70.4735 173.018 66.3302 128.676 44.1599C100.518 30.0812 75.6977 24.2817 54.7375 23.0264ZM223.407 42.6666C199.97 16.48 165.91 0 128 0C116.867 0 106.065 1.42149 95.7675 4.09268C109.714 7.89815 124.53 13.4655 140.124 21.2625C172.589 37.4946 200.617 42.721 223.407 42.6666ZM255.11 112.82C223.788 119.005 180.536 117.734 128.676 91.8041C80.1918 67.5621 41.6028 67.8674 15.577 73.6511C14.2336 73.9494 12.9219 74.263 11.6418 74.5894C8.23438 81.9999 5.51446 89.7926 3.5629 97.8847C5.64728 97.3279 7.80116 96.7987 10.0234 96.3046C41.5973 89.2883 86.2085 89.5929 140.124 116.551C188.609 140.793 227.197 140.488 253.224 134.704C254.115 134.506 254.994 134.301 255.858 134.09C255.953 132.072 256 130.042 256 128C256 122.864 255.698 117.798 255.11 112.82ZM251.679 161.103C220.661 166.525 178.669 164.444 128.676 139.448C80.1918 115.206 41.6028 115.512 15.577 121.295C9.80001 122.579 4.60313 124.142 0.018752 125.793C0.00625281 126.527 0 127.263 0 128C0 198.693 57.3075 256 128 256C187.245 256 237.09 215.75 251.679 161.103Z" fill="#6A76E3"/>
</svg>
