<svg width="300" height="260" viewBox="0 0 300 260" fill="none" xmlns="http://www.w3.org/2000/svg">
<path d="M4.49069 114.336C12.5714 81.6883 31.2862 52.6954 57.655 31.9759C84.0241 11.2561 116.531 0 150 0C183.469 0 215.976 11.2561 242.345 31.9759C268.714 52.6954 287.428 81.6883 295.509 114.336H282.366C260.194 114.008 238.476 120.669 220.263 133.384C219.211 134.149 218.114 134.848 216.977 135.476H215.444C214.307 134.848 213.209 134.149 212.158 133.384C193.783 120.963 172.142 114.33 150 114.33C127.858 114.33 106.217 120.963 87.8423 133.384C86.7908 134.149 85.6933 134.848 84.5564 135.476H83.023C81.8861 134.848 80.7886 134.149 79.7371 133.384C61.5235 120.669 39.8061 114.008 17.6342 114.336H4.49069ZM258.708 183.37C265.455 178.088 273.817 175.325 282.366 175.553H300V140.21H282.366C267.308 140.027 252.595 144.739 240.416 153.643C233.563 158.721 225.273 161.462 216.758 161.462C208.243 161.462 199.953 158.721 193.1 153.643C180.612 144.905 165.762 140.22 150.548 140.22C135.333 140.22 120.483 144.905 107.996 153.643C101.142 158.721 92.8521 161.462 84.3373 161.462C75.8226 161.462 67.5323 158.721 60.6791 153.643C48.3505 144.624 33.4261 139.907 18.1818 140.21H0V175.553H17.6342C26.183 175.325 34.5455 178.088 41.2924 183.37C53.7569 192.114 68.5904 196.802 83.7897 196.802C98.989 196.802 113.823 192.114 126.287 183.37C133.043 178.105 141.399 175.343 149.945 175.553C158.497 175.306 166.865 178.072 173.604 183.37C186.091 192.108 200.941 196.792 216.156 196.792C231.37 196.792 246.22 192.108 258.708 183.37ZM258.708 246.568C265.455 241.286 273.817 238.523 282.366 238.751H300V203.408H282.366C267.308 203.225 252.595 207.937 240.416 216.84C233.563 221.919 225.273 224.66 216.758 224.66C208.243 224.66 199.953 221.919 193.1 216.84C180.612 208.103 165.762 203.419 150.548 203.419C135.333 203.419 120.483 208.103 107.996 216.84C101.142 221.919 92.8521 224.66 84.3373 224.66C75.8226 224.66 67.5323 221.919 60.6791 216.84C48.3505 207.823 33.4261 203.105 18.1818 203.408H0V238.751H17.6342C26.183 238.523 34.5455 241.286 41.2924 246.568C53.7569 255.312 68.5904 260 83.7897 260C98.989 260 113.823 255.312 126.287 246.568C133.043 241.303 141.399 238.541 149.945 238.751C158.497 238.504 166.865 241.27 173.604 246.568C186.091 255.306 200.941 259.99 216.156 259.99C231.37 259.99 246.22 255.306 258.708 246.568Z" fill="#6A76E3"/>
</svg>
