<svg width="119" height="45" viewBox="0 0 119 45" fill="none" xmlns="http://www.w3.org/2000/svg">
<path d="M0.359255 22.1469C1.00571 19.5351 2.5029 17.2156 4.6124 15.5581C6.72193 13.9005 9.3225 13 12 13C14.6775 13 17.2781 13.9005 19.3876 15.5581C21.4971 17.2156 22.9943 19.5351 23.6407 22.1469H22.5893C20.8155 22.1207 19.0781 22.6536 17.621 23.6707C17.5369 23.7319 17.4491 23.7879 17.3582 23.8381H17.2355C17.1445 23.7879 17.0567 23.7319 16.9726 23.6707C15.5027 22.6771 13.7714 22.1464 12 22.1464C10.2286 22.1464 8.49735 22.6771 7.02738 23.6707C6.94326 23.7319 6.85547 23.7879 6.76451 23.8381H6.64184C6.55089 23.7879 6.46309 23.7319 6.37897 23.6707C4.92188 22.6536 3.18449 22.1207 1.41073 22.1469H0.359255ZM20.6966 27.6696C21.2364 27.2471 21.9054 27.026 22.5893 27.0442H24V24.2168H22.5893C21.3846 24.2022 20.2076 24.5791 19.2333 25.2914C18.685 25.6977 18.0218 25.9169 17.3406 25.9169C16.6595 25.9169 15.9962 25.6977 15.448 25.2914C14.449 24.5924 13.261 24.2176 12.0438 24.2176C10.8266 24.2176 9.63864 24.5924 8.63965 25.2914C8.09139 25.6977 7.42817 25.9169 6.74699 25.9169C6.0658 25.9169 5.40258 25.6977 4.85433 25.2914C3.86804 24.5699 2.67409 24.1926 1.45455 24.2168H0V27.0442H1.41073C2.09464 27.026 2.76364 27.2471 3.3034 27.6696C4.30055 28.3691 5.48723 28.7442 6.70318 28.7442C7.91912 28.7442 9.10581 28.3691 10.103 27.6696C10.6434 27.2484 11.3119 27.0275 11.9956 27.0442C12.6798 27.0245 13.3492 27.2457 13.8883 27.6696C14.8873 28.3687 16.0753 28.7434 17.2924 28.7434C18.5096 28.7434 19.6976 28.3687 20.6966 27.6696ZM20.6966 32.7254C21.2364 32.3029 21.9054 32.0818 22.5893 32.1H24V29.2726H22.5893C21.3846 29.258 20.2076 29.6349 19.2333 30.3472C18.685 30.7535 18.0218 30.9728 17.3406 30.9728C16.6595 30.9728 15.9962 30.7535 15.448 30.3472C14.449 29.6482 13.261 29.2735 12.0438 29.2735C10.8266 29.2735 9.63864 29.6482 8.63965 30.3472C8.09139 30.7535 7.42817 30.9728 6.74699 30.9728C6.0658 30.9728 5.40258 30.7535 4.85433 30.3472C3.86804 29.6259 2.67409 29.2484 1.45455 29.2726H0V32.1H1.41073C2.09464 32.0818 2.76364 32.3029 3.3034 32.7254C4.30055 33.4249 5.48723 33.8 6.70318 33.8C7.91912 33.8 9.10581 33.4249 10.103 32.7254C10.6434 32.3042 11.3119 32.0833 11.9956 32.1C12.6798 32.0803 13.3492 32.3016 13.8883 32.7254C14.8873 33.4245 16.0753 33.7992 17.2924 33.7992C18.5096 33.7992 19.6976 33.4245 20.6966 32.7254Z" fill="#6A76E3"/>
<path d="M55.71 11.94V33H50.58V20.37L45.87 33H41.73L36.99 20.34V33H31.86V11.94H37.92L43.83 26.52L49.68 11.94H55.71ZM69.3591 33.21C67.3791 33.21 65.5591 32.75 63.8991 31.83C62.2591 30.91 60.9491 29.63 59.9691 27.99C59.0091 26.33 58.5291 24.47 58.5291 22.41C58.5291 20.35 59.0091 18.5 59.9691 16.86C60.9491 15.22 62.2591 13.94 63.8991 13.02C65.5591 12.1 67.3791 11.64 69.3591 11.64C71.3391 11.64 73.1491 12.1 74.7891 13.02C76.4491 13.94 77.7491 15.22 78.6891 16.86C79.6491 18.5 80.1291 20.35 80.1291 22.41C80.1291 24.47 79.6491 26.33 78.6891 27.99C77.7291 29.63 76.4291 30.91 74.7891 31.83C73.1491 32.75 71.3391 33.21 69.3591 33.21ZM69.3591 28.53C71.0391 28.53 72.3791 27.97 73.3791 26.85C74.3991 25.73 74.9091 24.25 74.9091 22.41C74.9091 20.55 74.3991 19.07 73.3791 17.97C72.3791 16.85 71.0391 16.29 69.3591 16.29C67.6591 16.29 66.2991 16.84 65.2791 17.94C64.2791 19.04 63.7791 20.53 63.7791 22.41C63.7791 24.27 64.2791 25.76 65.2791 26.88C66.2991 27.98 67.6591 28.53 69.3591 28.53ZM90.603 33.21C89.063 33.21 87.683 32.96 86.463 32.46C85.243 31.96 84.263 31.22 83.523 30.24C82.803 29.26 82.423 28.08 82.383 26.7H87.843C87.923 27.48 88.193 28.08 88.653 28.5C89.113 28.9 89.713 29.1 90.453 29.1C91.213 29.1 91.813 28.93 92.253 28.59C92.693 28.23 92.913 27.74 92.913 27.12C92.913 26.6 92.733 26.17 92.373 25.83C92.033 25.49 91.603 25.21 91.083 24.99C90.583 24.77 89.863 24.52 88.923 24.24C87.563 23.82 86.453 23.4 85.593 22.98C84.733 22.56 83.993 21.94 83.373 21.12C82.753 20.3 82.443 19.23 82.443 17.91C82.443 15.95 83.153 14.42 84.573 13.32C85.993 12.2 87.843 11.64 90.123 11.64C92.443 11.64 94.313 12.2 95.733 13.32C97.153 14.42 97.913 15.96 98.013 17.94H92.463C92.423 17.26 92.173 16.73 91.713 16.35C91.253 15.95 90.663 15.75 89.943 15.75C89.323 15.75 88.823 15.92 88.443 16.26C88.063 16.58 87.873 17.05 87.873 17.67C87.873 18.35 88.193 18.88 88.833 19.26C89.473 19.64 90.473 20.05 91.833 20.49C93.193 20.95 94.293 21.39 95.133 21.81C95.993 22.23 96.733 22.84 97.353 23.64C97.973 24.44 98.283 25.47 98.283 26.73C98.283 27.93 97.973 29.02 97.353 30C96.753 30.98 95.873 31.76 94.713 32.34C93.553 32.92 92.183 33.21 90.603 33.21ZM109.06 33.21C107.52 33.21 106.14 32.96 104.92 32.46C103.7 31.96 102.72 31.22 101.98 30.24C101.26 29.26 100.88 28.08 100.84 26.7H106.3C106.38 27.48 106.65 28.08 107.11 28.5C107.57 28.9 108.17 29.1 108.91 29.1C109.67 29.1 110.27 28.93 110.71 28.59C111.15 28.23 111.37 27.74 111.37 27.12C111.37 26.6 111.19 26.17 110.83 25.83C110.49 25.49 110.06 25.21 109.54 24.99C109.04 24.77 108.32 24.52 107.38 24.24C106.02 23.82 104.91 23.4 104.05 22.98C103.19 22.56 102.45 21.94 101.83 21.12C101.21 20.3 100.9 19.23 100.9 17.91C100.9 15.95 101.61 14.42 103.03 13.32C104.45 12.2 106.3 11.64 108.58 11.64C110.9 11.64 112.77 12.2 114.19 13.32C115.61 14.42 116.37 15.96 116.47 17.94H110.92C110.88 17.26 110.63 16.73 110.17 16.35C109.71 15.95 109.12 15.75 108.4 15.75C107.78 15.75 107.28 15.92 106.9 16.26C106.52 16.58 106.33 17.05 106.33 17.67C106.33 18.35 106.65 18.88 107.29 19.26C107.93 19.64 108.93 20.05 110.29 20.49C111.65 20.95 112.75 21.39 113.59 21.81C114.45 22.23 115.19 22.84 115.81 23.64C116.43 24.44 116.74 25.47 116.74 26.73C116.74 27.93 116.43 29.02 115.81 30C115.21 30.98 114.33 31.76 113.17 32.34C112.01 32.92 110.64 33.21 109.06 33.21Z" fill="#6A76E3"/>
</svg>
